<svg id="Layer_1" data-name="Layer 1" xmlns="http://www.w3.org/2000/svg" viewBox="0 0 250 250"><defs><style>.cls-1{fill:#fff;}</style></defs><title>NTP-Stat</title><rect class="cls-1" x="54.62" y="103.06" width="4.6" height="99.93"/><path class="cls-1" d="M62.26,129H52a6.59,6.59,0,0,1-6.57-6.6V103.06H50v19.29a2,2,0,0,0,2,2H62.26a2,2,0,0,0,2-2V103.06h4.6v19.29A6.59,6.59,0,0,1,62.26,129Z"/><polygon class="cls-1" points="118.77 192.74 104.86 192.74 104.86 188.14 115.42 188.14 124.77 159.05 123.26 159.05 107.25 185.54 103.31 183.16 120.66 154.45 131.09 154.45 118.77 192.74"/><polygon class="cls-1" points="106.72 172.63 103 169.91 110.92 159.05 108.92 159.05 108.92 154.45 119.98 154.45 106.72 172.63"/><path class="cls-1" d="M175.82,192.74h-21l-12.38-38.29h10.31Zm-17.63-4.6h9.49l-17.51-29.09h-1.38Z"/><path class="cls-1" d="M204.67,192.74H182.22l-28.64-38.29h12.35Zm-20.15-4.6h8.95L164,159.05h-1.27Z"/><path class="cls-1" d="M147.14,192.74H126.42l5-38.29h10.77Zm-15.48-4.6h10.25l-3.76-29.09h-2.69Z"/><path class="cls-1" d="M160.92,97.4a7.49,7.49,0,0,1-6.39-3.63,8.93,8.93,0,0,1-1.32-4.67,9.57,9.57,0,0,1,2.95-7,10.46,10.46,0,0,1,6.49-2.76c1.21-4.4,5-10.39,13.25-10.39,7.53,0,13.65,5.67,13.65,12.65a10.52,10.52,0,0,1-.06,1.09,12.63,12.63,0,0,1,3.28.61,8.68,8.68,0,0,1,5.77,7.91,6.58,6.58,0,0,1-.31,2.12,6.2,6.2,0,0,1-6,4.11Zm2.92-13.54a6.4,6.4,0,0,0-4.51,1.54,5,5,0,0,0-1.52,3.7,4.48,4.48,0,0,0,.66,2.31,2.88,2.88,0,0,0,2.45,1.39h31.29a1.7,1.7,0,0,0,1.64-.94,2,2,0,0,0,.09-.59V91.2A4.12,4.12,0,0,0,191,87.52a21.92,21.92,0,0,0-4.23-.41l-2.74,0,.53-2.69a20,20,0,0,0,.35-2.81c0-4.44-4.06-8-9-8a8.14,8.14,0,0,0-7.45,4,12.35,12.35,0,0,0-1.64,4.39L166.54,84l-2.13-.11ZM191,87.52"/><path class="cls-1" d="M123.82,108.52a6,6,0,0,1-5.16-2.93,7.15,7.15,0,0,1-1-3.7,7.54,7.54,0,0,1,2.33-5.54,8,8,0,0,1,4.63-2.12c1.06-3.33,4-7.55,10.06-7.55,5.79,0,10.5,4.38,10.5,9.77,0,.06,0,.14,0,.21a8.3,8.3,0,0,1,1.93.42,6.89,6.89,0,0,1,4.56,6.29,5.26,5.26,0,0,1-.25,1.74,5.12,5.12,0,0,1-5,3.41Zm2.11-9.77a4,4,0,0,0-2.82.94,3,3,0,0,0-.9,2.2,2.72,2.72,0,0,0,.39,1.34,1.46,1.46,0,0,0,1.22.69h22.59a.44.44,0,0,0,.6-.44v-.07a2.37,2.37,0,0,0-1.67-2.06,16.84,16.84,0,0,0-2.85-.25l-2.73-.06.52-2.69a13.16,13.16,0,0,0,.24-1.9c0-2.85-2.64-5.17-5.89-5.17-5.21,0-5.89,5.23-5.92,5.45l-.25,2.14-2.16-.11Z"/><path class="cls-1" d="M105.3,159.2h-4.6V135.57a8.86,8.86,0,0,0-8.94-8.77H81.88A8.86,8.86,0,0,0,73,135.57v10.84l-2.9,1.51-14.36-10,2.64-3.77,10,7v-5.54A13.46,13.46,0,0,1,81.88,122.2h9.88a13.46,13.46,0,0,1,13.54,13.37Z"/><rect class="cls-1" x="71.57" y="103.45" width="30.42" height="4.6"/><polygon class="cls-1" points="92.96 106.07 91.86 98.2 81.29 98.18 80.34 106.03 75.77 105.48 77.22 93.57 95.86 93.6 97.52 105.44 92.96 106.07"/><polygon class="cls-1" points="98.45 203.31 74.79 203.31 74.79 126.64 79.39 126.64 79.39 198.71 93.84 198.71 93.81 126.64 98.41 126.64 98.45 203.31"/><polygon class="cls-1" points="91.88 133.82 81.32 133.82 81.32 124.91 85.92 124.91 85.92 129.21 87.27 129.21 87.27 124.91 91.88 124.91 91.88 133.82"/><rect class="cls-1" x="84.08" y="156.17" width="4.6" height="44.84"/><path class="cls-1" d="M86.65,121.34a11.74,11.74,0,0,1-11.8-11.66,11.44,11.44,0,0,1,1.1-4.92l4.16,2a6.85,6.85,0,0,0-.66,3,7.2,7.2,0,0,0,14.4,0,7,7,0,0,0-.66-3l4.16-2a11.44,11.44,0,0,1,1.1,4.92A11.75,11.75,0,0,1,86.65,121.34Z"/><rect class="cls-1" x="35.68" y="202.65" width="178.63" height="4.35" rx="2.17" ry="2.17"/></svg>