<svg id="Layer_1" data-name="Layer 1" xmlns="http://www.w3.org/2000/svg" viewBox="0 0 250 250"><defs><style>.cls-1{fill:#fff;}</style></defs><title>NTP-Stat</title><path class="cls-1" d="M173,119.64h-9.55v-3.91H173c2.05,0,2.22-1,2.22-2.06v-4.52a2,2,0,0,0-1.95-2H131.1v-3.91h42.21a5.87,5.87,0,0,1,5.86,5.87v4.52C179.17,117.35,176.82,119.64,173,119.64Z"/><path class="cls-1" d="M100.16,132.18a23.62,23.62,0,0,1-23.59-23.54l0-13.7A23.54,23.54,0,0,1,89,74.09l32.25-17.21a6.8,6.8,0,0,1,9.21,2.83l2,3.89a6.78,6.78,0,0,1-2.28,8.82l-9.33,6.15h51.51c2.79,0,6.72,2,6.72,6.37v3.55a6.24,6.24,0,0,1-6.23,6.24h-2V90.82h2a2.32,2.32,0,0,0,2.32-2.33V84.94c0-2.35-2.79-2.46-2.81-2.46H107.89L128.1,69.16a2.87,2.87,0,0,0,1-3.74l-2-3.89a2.94,2.94,0,0,0-1.71-1.42,2.9,2.9,0,0,0-2.2.21L90.87,77.54A19.63,19.63,0,0,0,80.46,94.93l0,13.7a19.71,19.71,0,0,0,19.68,19.64h0l66.92-.06s2.48-.3,2.48-2.46V121.6a1.95,1.95,0,0,0-1.95-2l-36.53,0v-3.91l36.53,0a5.87,5.87,0,0,1,5.87,5.87v4.15c0,4.5-4.16,6.37-6.39,6.37l-66.91.06Z"/><path class="cls-1" d="M178.91,107.19h-8.1v-3.91h8.1c1.47,0,2.22-.38,2.22-2.45V97.19c0-2.14-1.39-2.46-2.22-2.46H131.09V90.82h47.82A6,6,0,0,1,185,97.19v3.64C185,104.81,182.75,107.19,178.91,107.19Z"/><path class="cls-1" d="M131.1,151.9l-.63-1.28c-.12-.25-3-6.18-.58-10.75s8.94-5.54,9.22-5.58l1.4-.2.62,1.27c.13.25,3,6.19.58,10.75s-8.93,5.55-9.21,5.59Zm7.07-13.4c-1.66.49-3.92,1.49-4.82,3.2s-.46,4.13.08,5.79c1.66-.49,3.93-1.5,4.83-3.2S138.67,140,138.17,138.5Z"/><path class="cls-1" d="M115.25,162l-1.22-.71c-.25-.14-5.94-3.47-6.48-8.61s4.34-9.58,4.54-9.77l1.06-.94,1.23.7c.24.14,5.93,3.48,6.47,8.61s-4.33,9.59-4.54,9.77Zm-1.58-15.07c-1.11,1.33-2.43,3.43-2.23,5.34s1.93,3.7,3.29,4.77c1.11-1.33,2.43-3.43,2.23-5.35S114.93,147.89,113.67,146.9Z"/><path class="cls-1" d="M119.76,119.88l-1.42-.06c-.27,0-6.86-.34-9.71-4.65s-.58-10.5-.48-10.76l.49-1.33,1.42.06c.28,0,6.86.34,9.71,4.65s.59,10.5.49,10.76Zm-8.37-12.64c-.36,1.7-.57,4.16.5,5.77s3.41,2.38,5.12,2.71c.37-1.7.57-4.16-.49-5.77S113,107.54,111.39,107.24Z"/><path class="cls-1" d="M134.08,179.9c-2.29,0-5.57-.44-7.83-2.61-3.73-3.58-2.87-10.12-2.83-10.4l.2-1.4,1.39-.25c.28-.05,6.77-1.17,10.5,2.41s2.86,10.12,2.82,10.39l-.19,1.41-1.4.25A16.24,16.24,0,0,1,134.08,179.9Zm-6.87-11c0,1.73.35,4.18,1.74,5.52s3.86,1.58,5.59,1.52c0-1.73-.35-4.18-1.74-5.52S129,168.89,127.21,169Z"/><rect class="cls-1" x="35.68" y="202.65" width="178.63" height="4.35" rx="2.17" ry="2.17"/></svg>