<svg id="Layer_1" data-name="Layer 1" xmlns="http://www.w3.org/2000/svg" viewBox="0 0 250 250"><defs><style>.cls-1{fill:#fff;}</style></defs><title>NTP-Stat</title><path class="cls-1" d="M185.56,205.56H61.91V133.5L82,99.73l41.75-12.64,41.56,12.64,20.27,33.76ZM66.13,201.34H181.34V134.66l-18.83-31.37L123.73,91.5l-39,11.79L66.13,134.66Z"/><polygon class="cls-1" points="184.48 136.34 182.42 132.66 190.93 127.9 169.51 92.23 123.73 78.31 77.74 92.22 56.54 127.88 64.72 132.34 62.7 136.05 50.68 129.49 74.95 88.66 123.73 73.9 172.29 88.66 196.78 129.46 184.48 136.34"/><path class="cls-1" d="M138.42,135.2H109.05l0-20.09a14.68,14.68,0,0,1,29.31,0v.12ZM113.27,131H134.2l0-15.68a10.46,10.46,0,0,0-20.88,0Z"/><path class="cls-1" d="M160.35,203.3,126.7,153.89a2.61,2.61,0,0,0-4.31,0L89.13,202.74a2.62,2.62,0,0,1-2.93,1l-.38-.12A2.62,2.62,0,0,1,84,201.16V146.93a2.6,2.6,0,0,1,2.61-2.6H162.5a2.6,2.6,0,0,1,2.61,2.6v54.91A2.61,2.61,0,0,1,160.35,203.3ZM88.2,151.15v37A2.61,2.61,0,0,0,93,189.61l25.19-37a2.6,2.6,0,0,0-2.15-4.07H90.81A2.6,2.6,0,0,0,88.2,151.15Zm42.74,1.47,25.19,37a2.61,2.61,0,0,0,4.76-1.46v-37a2.6,2.6,0,0,0-2.61-2.6H133.09A2.6,2.6,0,0,0,130.94,152.62Z"/><rect class="cls-1" x="122.44" y="147.28" width="4.22" height="56.17"/><polygon class="cls-1" points="125.74 205.45 123.35 205.45 85.53 149.37 89.03 147.01 124.55 199.67 160.12 146.93 163.62 149.29 125.74 205.45"/><rect class="cls-1" x="35.68" y="202.65" width="178.63" height="4.35" rx="2.17" ry="2.17"/></svg>