<svg id="Layer_1" data-name="Layer 1" xmlns="http://www.w3.org/2000/svg" viewBox="0 0 250 250"><defs><style>.cls-1{fill:#fff;}.cls-2,.cls-3{fill:#001c71;}.cls-3{font-size:37.94px;font-family:OpenSans-Bold, Open Sans;font-weight:700;}</style></defs><title>NTP-Stat</title><circle class="cls-1" cx="65.44" cy="162.52" r="31.6"/><path class="cls-2" d="M65.44,195.62a33.1,33.1,0,1,1,33.1-33.1A33.14,33.14,0,0,1,65.44,195.62Zm0-63.2a30.1,30.1,0,1,0,30.1,30.1A30.14,30.14,0,0,0,65.44,132.42Z"/><circle class="cls-1" cx="184.56" cy="162.44" r="31.6"/><path class="cls-2" d="M184.57,195.54a33.57,33.57,0,0,1-5.79-.51,33.1,33.1,0,1,1,38.37-26.81h0A33.17,33.17,0,0,1,184.57,195.54Zm0-63.21a30.14,30.14,0,1,0,5.27.47A30.54,30.54,0,0,0,184.54,132.33Z"/><circle class="cls-1" cx="124.84" cy="162.52" r="31.6"/><path class="cls-2" d="M124.84,195.62a33.1,33.1,0,1,1,33.1-33.1A33.14,33.14,0,0,1,124.84,195.62Zm0-63.2a30.1,30.1,0,1,0,30.1,30.1A30.14,30.14,0,0,0,124.84,132.42Z"/><text class="cls-3" transform="translate(52.35 175.38)">A</text><path class="cls-2" d="M198,162.91q.09,6.69-3.68,10.29t-10.95,3.69l-7.67.1-.33-27.08,8.5-.11q6.63-.08,10.35,3.38T198,162.91Zm-6,.22q-.1-8.72-7.81-8.63l-3.06,0,.21,17.64,2.47,0Q192.14,172,192,163.13Z"/><text class="cls-3" transform="translate(114.21 175.38)">E</text><rect class="cls-1" x="35.68" y="202.65" width="178.63" height="4.35" rx="2.17" ry="2.17"/></svg>