<svg id="Layer_1" data-name="Layer 1" xmlns="http://www.w3.org/2000/svg" viewBox="0 0 250 250"><defs><style>.cls-1{fill:#fff;}</style></defs><title>NTP-Stat</title><polygon class="cls-1" points="103.78 200.65 98.47 200.65 98.47 126.2 78.76 114.49 59.05 126.2 59.05 200.65 53.74 200.65 53.74 123.18 78.76 108.31 103.78 123.18 103.78 200.65"/><polygon class="cls-1" points="137.92 155.14 132.61 155.14 132.61 105.83 112.9 94.12 93.19 105.83 93.19 118.4 87.88 118.4 87.88 102.81 112.9 87.94 137.92 102.81 137.92 155.14"/><rect class="cls-1" x="121.43" y="161.23" width="5.31" height="39.42"/><polygon class="cls-1" points="225.05 167.96 168.58 138.86 115.37 167.93 112.82 163.27 168.5 132.85 227.48 163.24 225.05 167.96"/><rect class="cls-1" x="213.38" y="161.23" width="5.31" height="39.42"/><polygon class="cls-1" points="198.49 200.65 193.18 200.65 193.18 174.28 148.34 174.28 148.34 200.65 143.02 200.65 143.02 168.97 198.49 168.97 198.49 200.65"/><rect class="cls-1" x="49.62" y="198" width="174.55" height="5.31"/><rect class="cls-1" x="35.68" y="202.65" width="178.63" height="4.35" rx="2.17" ry="2.17"/></svg>