<svg id="Layer_1" data-name="Layer 1" xmlns="http://www.w3.org/2000/svg" viewBox="0 0 250 250"><defs><style>.cls-1{fill:#fff;}</style></defs><title>NTP-Stat</title><path class="cls-1" d="M202.81,149h-.24a30.75,30.75,0,0,1-17.44-6.1c-5.26-3.87-8.83-9-9.79-14.07l-.14-.7,3-1.21-3.18-.75v-.69c0-.55,0-1.35.08-1.67a26.31,26.31,0,0,1,.53-4.07l.14-.67,3.63-.1-3-2.36.21-.58a21.59,21.59,0,0,1,2.71-5.34l.44-.62,3,1.55-1.62-3.1.48-.45a15.91,15.91,0,0,1,4.58-3l.46-.2.4.29a14.47,14.47,0,0,1,3.67,4.69c1.55,2.86,3.39,7.84,3.52,15.45h7.68a25.15,25.15,0,0,1,1.06-6.53c1.49-4.86,4.37-8.31,8.38-10-.33-.61-.62-1.25-.68-1.38-.74-1.91-.89-3.72-.39-4.74a1.63,1.63,0,0,1,1-.9,2.55,2.55,0,0,1,2.56,1.15c.39-1.45,1.09-2.61,2.22-2.61s2,1.39,2.35,3.19c.94-1.08,2-1.72,3-1.34,1.5.59,1.2,2.82.83,4.45-.2.89-.46,1.75-.65,2.33l7.71,3.5-6,2a5,5,0,0,1,.7,2.07,3.51,3.51,0,0,1-1,3l0,0a3.64,3.64,0,0,1-4.22.48A96.65,96.65,0,0,1,219.92,130C219.92,140.46,212.24,149,202.81,149Zm-25.62-19.8c1.07,4.42,4.31,8.87,9,12.3a29,29,0,0,0,16.43,5.76h.22c8.48,0,15.38-7.72,15.38-17.21,0-3-1.42-11.8-1.44-11.89l-.46-2.84,2,2.12c.08.08,2,2.11,3.6.73a1.81,1.81,0,0,0,.47-1.54,3.63,3.63,0,0,0-1-2.09l-.93-1,4.25-1.45-5.18-2.36.28-.75a24.4,24.4,0,0,0,.77-2.53,5.83,5.83,0,0,0,.27-2.77,5.68,5.68,0,0,0-2.17,2.63L217,109.58v-3.7a7,7,0,0,0-.84-3.91,6.21,6.21,0,0,0-.83,3.25l-.18,3.38-1.47-3a4.75,4.75,0,0,0-1.78-2.25,5.42,5.42,0,0,0,.47,3.33,15.49,15.49,0,0,0,1,1.94l.68,1-1.1.38c-4,1.4-6.81,4.52-8.27,9.29a23.4,23.4,0,0,0-1,6.86l0,.9H192.53v-.87c0-7.67-1.77-12.59-3.25-15.38a15.22,15.22,0,0,0-2.86-3.91,13.73,13.73,0,0,0-3.11,2l3.57,6.84-6.52-3.41a20.39,20.39,0,0,0-1.85,3.71l5.69,4.54-7,.19a22.57,22.57,0,0,0-.36,3.12v.07c0,.14,0,.49-.06.85l7.1,1.68Z"/><path class="cls-1" d="M202.81,149.46h-.25a31.22,31.22,0,0,1-17.72-6.2c-5.36-3.94-9-9.18-10-14.37l-.21-1.1,1.92-.78-2-.49v-1.08c0-.59,0-1.41.08-1.72a26.46,26.46,0,0,1,.54-4.12l.22-1.06,2.66-.08-2.16-1.72.33-.92a22.57,22.57,0,0,1,2.77-5.46l.69-1,1.94,1-1.05-2,.75-.72a16.25,16.25,0,0,1,4.72-3.13l.72-.32.63.46a15.12,15.12,0,0,1,3.82,4.86c1.53,2.82,3.37,7.72,3.57,15.19h6.71a26.23,26.23,0,0,1,1.06-6.18c1.47-4.78,4.28-8.27,8.17-10.13-.23-.45-.41-.84-.45-1-.8-2.06-1-4-.38-5.14a2.13,2.13,0,0,1,1.32-1.16,2.57,2.57,0,0,1,2.49.7c.54-1.41,1.39-2.18,2.44-2.18s2.11,1,2.63,2.7a2.79,2.79,0,0,1,2.89-.81c2.07.81,1.39,3.87,1.13,5-.16.71-.36,1.4-.53,2l8.46,3.84-6.63,2.26a5.61,5.61,0,0,1,.49,1.74,4,4,0,0,1-1.18,3.41,4.08,4.08,0,0,1-4,.91,89.92,89.92,0,0,1,1,9.33C220.42,140.74,212.52,149.46,202.81,149.46Zm-27-21.06.06.3c.94,5,4.44,10,9.6,13.76a30.17,30.17,0,0,0,17.15,6h.23c9.16,0,16.61-8.27,16.61-18.44a97.12,97.12,0,0,0-1.13-10l-.14-.93.85.4a3.19,3.19,0,0,0,3.68-.4,3,3,0,0,0,.87-2.59,4.52,4.52,0,0,0-.63-1.86l-.32-.53,5.38-1.84-7-3.17.14-.42c.18-.56.44-1.41.63-2.29.51-2.27.34-3.53-.52-3.87s-1.9.6-2.42,1.2l-.67.77-.2-1c-.16-.84-.67-2.79-1.86-2.79-1,0-1.51,1.4-1.73,2.24l-.24.91-.62-.71c-.51-.59-1.29-1.24-2.05-1a1.19,1.19,0,0,0-.71.65c-.43.88-.27,2.58.41,4.33,0,.1.31.71.65,1.33l.26.48-.5.22c-3.87,1.67-6.67,5-8.1,9.73a24.57,24.57,0,0,0-1,6.4v.48h-8.66v-.49c-.13-7.54-1.95-12.44-3.46-15.22a13.88,13.88,0,0,0-3.53-4.53l-.17-.12-.19.08a15.5,15.5,0,0,0-4.44,3l-.2.19,2.19,4.18-4-2.09-.18.27a21.43,21.43,0,0,0-2.65,5.21l-.09.25,3.75,3-4.61.13-.06.28a26.55,26.55,0,0,0-.52,4c0,.32-.08,1.12-.08,1.66v.29l4.31,1Zm27,19.33h-.2a29.48,29.48,0,0,1-16.75-5.87c-4.72-3.47-8.06-8.06-9.16-12.58l-.1-.42,5.63-2.29-6-1.42,0-.41c0-.38,0-.74.06-.87a24.18,24.18,0,0,1,.38-3.24l.07-.4,6-.16-4.91-3.92.13-.34a21.06,21.06,0,0,1,1.9-3.8l.25-.39,5.51,2.88-3-5.77.3-.26a14.58,14.58,0,0,1,3.22-2.12l.31-.15.25.24a15.51,15.51,0,0,1,3,4c1.51,2.83,3.31,7.84,3.31,15.61v.37h10.16l0-.38a24.33,24.33,0,0,1,1-7c1.51-4.93,4.4-8.16,8.59-9.61l.46-.17-.28-.4a14.89,14.89,0,0,1-1.09-2.05,5.65,5.65,0,0,1-.46-3.72l.2-.43.44.18a5.05,5.05,0,0,1,2,2.49l.62,1.29.08-1.43a6.57,6.57,0,0,1,.95-3.56l.38-.43.37.43a7.35,7.35,0,0,1,1,4.24v1.58l.7-1.38a6.12,6.12,0,0,1,2.45-2.88l.49-.18.16.5a6.32,6.32,0,0,1-.27,3,22.52,22.52,0,0,1-.79,2.61l-.11.3,5.91,2.68-4.71,1.61.39.42a4.07,4.07,0,0,1,1.15,2.38,2.33,2.33,0,0,1-.62,2c-1.58,1.36-3.45.17-4.32-.75l-.83-.9.2,1.2c0,.09,1.44,8.93,1.44,12C218.69,139.78,211.56,147.73,202.81,147.73Zm-25-18.27c1.15,4.16,4.28,8.37,8.68,11.6a28.39,28.39,0,0,0,16.14,5.66h.21c8.2,0,14.88-7.5,14.88-16.71,0-2.94-1.42-11.72-1.43-11.81l-.73-4.49,3.09,3.35c.16.17,1.7,1.74,2.9.69a1.33,1.33,0,0,0,.31-1.11,3.2,3.2,0,0,0-.89-1.8l-1.45-1.54,3.79-1.3-4.46-2,.44-1.2a23.25,23.25,0,0,0,.75-2.47,11.34,11.34,0,0,0,.3-1.67,7.94,7.94,0,0,0-1.27,1.88l-2.59,5.16v-5.81a10,10,0,0,0-.34-2.73,8.67,8.67,0,0,0-.34,2.1l-.27,5.32-2.32-4.8a6.79,6.79,0,0,0-.92-1.45,7.43,7.43,0,0,0,.53,2.13,14.19,14.19,0,0,0,1,1.84l1.07,1.49-1.74.6c-3.87,1.34-6.55,4.36-8,9a23,23,0,0,0-1,6.7l.06,1.42H192v-1.37c0-7.56-1.73-12.41-3.19-15.14a15.29,15.29,0,0,0-2.52-3.54,13.82,13.82,0,0,0-2.39,1.56l4.13,7.9-7.52-3.93a19,19,0,0,0-1.43,2.89l6.47,5.16-8,.22a22.42,22.42,0,0,0-.28,2.64V124c0,.08,0,.23,0,.41l8.21,1.94Z"/><rect class="cls-1" x="196.44" y="146.72" width="1.74" height="9.26" transform="translate(-44.98 95.37) rotate(-24.48)"/><path class="cls-1" d="M198.19,156.59l-4.26-9.34,2.49-1.14,4.26,9.35Zm-2.93-8.85,3.42,7.52.67-.3-3.42-7.52Z"/><path class="cls-1" d="M206.27,158.77a16.89,16.89,0,0,0-8.9-2.2c-3.72,0-4.2,1.62-4.2,1.64l-1.7-.32c0-.13.63-3.06,5.9-3.06a18.4,18.4,0,0,1,9.88,2.5l-1,1.43.49-.71Z"/><path class="cls-1" d="M206.41,159.46l-.41-.28a16.83,16.83,0,0,0-8.63-2.11c-3.23,0-3.72,1.27-3.72,1.29l-.11.46-.46-.12-2.2-.41.09-.5c0-.14.72-3.46,6.4-3.46a18.84,18.84,0,0,1,10.17,2.59l.41.28Zm-9-3.39a18.28,18.28,0,0,1,8.75,2l.42-.61a18.84,18.84,0,0,0-9.17-2.16c-3.61,0-4.83,1.41-5.23,2.18l.76.14C193.3,157.05,194.41,156.07,197.37,156.07Z"/><path class="cls-1" d="M209.2,155.57a13.81,13.81,0,0,0-8.8-2.17l-.1-1.73a15.28,15.28,0,0,1,10,2.53Z"/><path class="cls-1" d="M209.29,156.27l-.39-.31a13.52,13.52,0,0,0-8.47-2.06l-.5,0-.16-2.73.5,0a16,16,0,0,1,10.32,2.64l.39.31Zm-7.87-3.4a14.75,14.75,0,0,1,7.68,2l.46-.58a15.12,15.12,0,0,0-8.73-2.16l0,.73Z"/><rect class="cls-1" x="201.15" y="147.85" width="1.74" height="4.85" transform="translate(-42.73 91.19) rotate(-23.07)"/><path class="cls-1" d="M201.91,153.5l-2.3-5.38,2.52-1.08,2.3,5.39Zm-1-4.86,1.51,3.55.67-.29-1.51-3.54Z"/><path class="cls-1" d="M217.54,109.89a1.25,1.25,0,0,0,0,2.49,1.25,1.25,0,1,0,0-2.49Z"/><path class="cls-1" d="M217.54,112.88a1.75,1.75,0,1,1,1.75-1.75A1.74,1.74,0,0,1,217.54,112.88Zm0-2.49a.75.75,0,1,0,.75.74A.74.74,0,0,0,217.54,110.39Z"/><path class="cls-1" d="M133.32,194.26h-8.74l-1.13-11.73-3.82-6.67a40.5,40.5,0,0,1-26.5,2.86l1,15.54H85.39l-.93-11.75-7.72-14a24.53,24.53,0,0,1-2.54-9.56,24.09,24.09,0,0,1,7.18-16.41c5.74-5.69,14.08-8.58,24.81-8.58h.45a75.31,75.31,0,0,1,30.6,6.75,58.37,58.37,0,0,1,11.07,6.45l19.37,4.47-8.59,8.85,3.44,8.68,4.69,4.55-9.43,9.71-4.5-4.36a56.47,56.47,0,0,1-16.63-2.95l-4.89-1.66Zm-6-3h2.82l-1.65-21.15,9.17,3.1a53.22,53.22,0,0,0,16.31,2.81h.59l3.21,3.11,5.28-5.45-3-2.92-4.38-11.07,6.25-6.44L147,149.85l-.27-.22a54.09,54.09,0,0,0-10.8-6.31,72.37,72.37,0,0,0-29.29-6.43c-10.12-.09-17.9,2.52-23.14,7.72a21,21,0,0,0-6.29,14.29,21.92,21.92,0,0,0,2.15,8.1v0l8,14.62.76,9.65H91l-1.06-16.61,2.06.63c12,3.67,22.43-.12,27.62-2.72l1.26-.62,5.52,9.64Z"/><path class="cls-1" d="M152,163.44a2.23,2.23,0,1,0,2.23,2.23A2.23,2.23,0,0,0,152,163.44Z"/><path class="cls-1" d="M68.63,163.39a6.31,6.31,0,0,1-4.06-1.73l1.93-2.26a3.43,3.43,0,0,0,2.18,1,6.42,6.42,0,0,1-1.94-5.61,4,4,0,0,1,2.51-3.51,3.09,3.09,0,0,1,3.28,1.21,6,6,0,0,1,1.4,3.59,16.64,16.64,0,0,0,1.14-3l2.88.78c-.29,1.05-1.86,6.36-5,7.56a3.41,3.41,0,0,1-.72.2q-.13.17-.3.33A4.65,4.65,0,0,1,68.63,163.39ZM70,154.23a2.77,2.77,0,0,0-.39,1.54,3.3,3.3,0,0,0,1.09,2.5,4.22,4.22,0,0,0-.46-3.8A1.76,1.76,0,0,0,70,154.23Z"/><rect class="cls-1" x="86.53" y="103.32" width="4.03" height="3.77" transform="translate(-8.73 8.02) rotate(-4.94)"/><rect class="cls-1" x="77.34" y="103.53" width="3.15" height="4.03" transform="matrix(0.22, -0.98, 0.98, 0.22, -41.25, 159.67)"/><path class="cls-1" d="M61,132.11l-2.21-21.46,0-.23,2.72-20.27-.43-19.77A11.32,11.32,0,0,1,72.48,58.8h81.75l15.69-7.17,11.54-.19-5,7.81,12.33,17.08-9.22,9-12-7.62-4.91,12.37a22.93,22.93,0,0,1-22.57,14.45l.71,27.16-10.65.38-3-29.49L81,95.2l-11.26,16,2.11,20.49Zm1.85-21.39,1.78,17.22,2.72-.1-1.83-17.7L79.13,90.82l51.79,8.31,2.93,28.81,2.88-.1L136,100l2.4.38A18.78,18.78,0,0,0,159,88.63l6.71-16.9,13.39,8.52,4.46-4.37L171.64,59.4l2.41-3.8-3.22,0L155.1,62.83H72.48a7.31,7.31,0,0,0-7.3,7.46l.43,20.09Z"/><path class="cls-1" d="M50.28,113.09l-.13-5a33.22,33.22,0,0,1,3.57-14.2c-.24-4.18,0-11.19.63-21.39A14.62,14.62,0,0,1,68.77,58.79h4v4h-4a10.7,10.7,0,0,0-10.39,10c-.68,10.34-.88,17.54-.6,21.4,0,.59.06,1.18.07,1.75.09,8.78-4,13.31-4.2,13.5Z"/><path class="cls-1" d="M170.4,64.06a2.27,2.27,0,1,0,2.27,2.27A2.27,2.27,0,0,0,170.4,64.06Z"/><path class="cls-1" d="M164.47,57.06A13.37,13.37,0,0,1,163.26,48l4,.75a9.42,9.42,0,0,0,.69,6.21Z"/><path class="cls-1" d="M83.08,106.39a13.67,13.67,0,0,1-9.91-4.28l2.93-2.77a9.52,9.52,0,0,0,7,3,9.66,9.66,0,0,0,9.37-7.49l3.93.88A13.71,13.71,0,0,1,83.08,106.39Z"/><rect class="cls-1" x="35.68" y="202.65" width="178.63" height="4.35" rx="2.17" ry="2.17"/></svg>