<svg xmlns="http://www.w3.org/2000/svg" viewBox="0 0 421 293"><path fill="#05CE7C" d="M384.5 132c-6.4-.6-12.3 1.1-17.8 4.3l-24.8-34.6 24.3-59.2-11.4 2.8-19.7 49.2.2-44.2-9 2.2-.5 97.3 9.1-2.4.2-38.3 24.2 32.8c-7.9 6.9-15 16.5-21 25.9-.7 1.1-2.3 2.2-2.3 3.3-3 3.6-4.1 7.1-6.1 10.4-2.4 3.9-4.4 7.3-6.5 10.1-3.1 4.2-6.1 7.9-9.2 11-9.5 9.8-18.3 14.3-24 14.8-10 .9-20.2-7.1-20.2-7.1s3.6 23.2 22.4 20.9l2.1-.3-1.9 2.4c-22.6 23.6-54.3 38.2-89.5 38.2-43.3 0-81.6-21.9-104.1-56.7l-7.6 2.1c23.4 37.9 65 62 111.7 62 41.1 0 80.3-21.8 105.2-52.9-.2.2-.2.1-.2 0 .1-.1.2-.1.4-.2-.1.1-.1.2-.2.2.1-.1.1-.1.2-.3 3.4-2 6.6-4.4 9.6-7.1 1.5-1.3 2.9-2.7 4.2-4.2 8.2-8.8 14.8-20.1 19.8-31.6 10.1-23.2 15.1-26.7 21.5-33 10.1 14.5 22.8 19.5 32.7 13.7 10.4-5.1 17.6-29-11.8-31.5zm10.4 17.7c-3.4 4.9-10.4 7.9-18.6 0l-5.9-8.2c3.9-4.8 12.2-6.7 18.2-5 5.9 1.7 9.5 8.6 6.3 13.2z"/><path fill="#05CE7C" d="M323.3 72.9l-9.5 2.5V64.1l-9.3 2.4-.3 79.3 9.3-2.6V133l9.5-2.5-.1 20.2-27.8 7.1.4-97 27.8-7.2z"/><path fill="#010101" d="M240.6 123.9h-.2.2"/><path fill="#05CE7C" d="M257 144.5c-1.4-22.6-14.5-21-16.3-20.6h-.2.2c1.7-.4 13.7-3.9 13.6-27 0-20.8-15.1-21.9-20.2-20.5-5.1 1.4-13 3.6-13 3.6l-.4 96.3 23.7-5.9c-.1 0 13.8-5.1 12.6-25.9m-28.2-58.1l7.1-1.7c2.8-.5 11 .7 11 13.2 0 14.9-7.5 17.7-7.5 17.7l-10.8 3.7.2-32.9zm12.1 76.3l-12.4 3.1.3-31.9s5-1.4 8.2-2.3c3.2-.9 12.6.6 12.6 13.9 0 15.8-8.7 17.2-8.7 17.2"/><path d="M156.7 207.4l-2 2.6c-1.9-1.5-3.9-2.4-6.1-2.8-2.2-.4-4.5-.3-6.8.3-2.6.7-4.8 1.9-6.7 3.7-1.9 1.8-3.1 3.9-3.8 6.3-.7 2.4-.7 4.9 0 7.5 1 3.9 3.2 6.9 6.6 8.8 3.4 1.9 7.1 2.4 11.2 1.3 4.5-1.2 7.8-3.9 10-8.2l3 1.3c-1.1 2.5-2.7 4.6-4.8 6.3-2.1 1.7-4.7 3-7.6 3.8-5.6 1.5-10.6.7-14.8-2.2-3.6-2.5-5.9-5.9-7.1-10.4-1.2-4.7-.6-9.1 1.9-13.2s6.2-6.8 11.2-8.1c3-.8 5.9-.9 8.6-.3 2.7.4 5.1 1.5 7.2 3.3m4.3-4.6l3.9-1 1.1 4.3c.7-2 1.6-3.6 2.7-4.8 1.1-1.2 2.3-1.9 3.7-2.3 1-.3 2.3-.2 3.6.1l-1.2 3.7c-.9-.1-1.6-.1-2.1 0-1.3.3-2.4 1.2-3.3 2.5-.9 1.3-1.4 3.2-1.4 5.6 0 1.8.6 5.3 1.9 10.4l2.6 10-3.9 1-7.6-29.5zm54.5-17l23.4 28.4-3.5.9-7.8-9.3-13.9 3.6-2.3 11.9-3.6.9 6.9-36.2.8-.2zm1.4 6.9l-2.5 13.1 11-2.9-8.5-10.2zm12.9-7.3l-.8-3.1 17.7-4.6.8 3.1-7.2 1.9 7.5 29.1-3.2.9-7.6-29.2zm21.3-8.9l3.3-.8 8.3 32.3-3.2.8zm8.5-2.2l3.5-.9 17.1 22.2 4.4-27.8 3.6-.9-5.7 35.9-.7.2zm-59.4 37.5l3-.3c.2 1.9.1 3.6-.3 5.2-.4 1.5-1 2.9-1.9 4.2-.9 1.2-2.1 2.4-3.6 3.4-3.4 2.2-6.7 2.8-10.1 1.9-3.3-1-5.9-2.8-7.7-5.6-1.7-2.6-2.4-5.5-2.2-8.6.3-3.9 2.2-7 5.6-9.3 3.5-2.3 7.2-2.8 11-1.5 2.7.9 5 2.8 6.9 5.6L182.3 219c1.6 2.4 3.7 3.8 6.2 4.4 2.5.6 4.8.1 7-1.3 1-.7 1.9-1.5 2.7-2.6.8-1 1.3-2 1.6-3.1.3-1.3.4-2.7.4-4.6m-3.7-5.6c-1.3-1.2-2.5-2-3.8-2.4-1.2-.4-2.6-.5-4-.3-1.5.2-2.8.7-4 1.5-2 1.3-3.3 3.1-3.9 5.4-.4 1.6-.3 3.6.4 5.8l15.3-10zm116.7-24.4l3-.3c.2 1.9.1 3.6-.3 5.2-.4 1.5-1 2.9-1.9 4.1-.9 1.2-2.1 2.4-3.6 3.4-3.4 2.2-6.7 2.8-10.1 1.9-3.3-1-5.9-2.8-7.7-5.6-1.7-2.6-2.4-5.5-2.2-8.6.3-3.9 2.2-7 5.6-9.3 3.5-2.3 7.2-2.8 11-1.5 2.7.9 5 2.8 6.9 5.6l-18.6 12.1c1.6 2.4 3.7 3.8 6.2 4.4 2.5.6 4.8.1 7-1.3 1-.7 2-1.5 2.7-2.6.8-1 1.3-2.1 1.6-3.1.3-1 .4-2.5.4-4.4m-3.7-5.5c-1.3-1.2-2.5-2-3.8-2.4-1.2-.4-2.6-.5-4-.3-1.5.2-2.8.7-4 1.5-2 1.3-3.3 3.1-3.9 5.4-.4 1.7-.3 3.6.4 5.8l15.3-10z" fill="#005677"/><path fill="#05CE7C" stroke="#FFF" stroke-width="1.345" stroke-miterlimit="10" d="M117.1 129.7c-2.5 0-4.6 2.1-4.6 4.6 0 2.5 2.1 4.6 4.6 4.6 2.5 0 4.6-2.1 4.6-4.6 0-2.6-2.1-4.6-4.6-4.6"/><path fill="#005677" d="M126.6 135.4v-1.7l-1.4-.2c0-.4-.1-.8-.2-1.2l1.2-.6-.5-1.6-1.4.3c-.2-.4-.4-.7-.7-1.1l.9-1-1.1-1.3-1.2.8c-.3-.2-.5-.4-.8-.6l.5-1.2-1.5-.8-.8 1.2c-.4-.1-.7-.2-1.1-.3l-.1-1.4-1.7-.1-.2 1.3c-.4 0-.7 0-1.1.1l-.5-1.3-1.6.4.2 1.3c-.5.2-.9.4-1.3.7l-1-.9-1.2 1.1.8 1.1c-.4.4-.8.9-1.1 1.4l-1.2-.4-.7 1.5 1.1.6c-.1.3-.2.7-.3 1.1h-1.3l-.2 1.7 1.4.3c0 .4.1.8.2 1.2l-1.2.6.6 1.6 1.3-.3c.2.4.4.8.7 1.1l-.9 1 1.1 1.2 1-.8c.3.3.7.6 1.1.8l-.5 1.3 1.5.7.7-1.2c.5.2 1 .3 1.5.3l.1 1.3h1.7l.1-1.3c.4 0 .9-.1 1.3-.3l.6 1.2 1.6-.6-.3-1.3c.4-.2.7-.4 1.1-.7l1 .9 1.2-1.2-.9-1.1c.3-.4.5-.7.7-1.1l1.3.4.7-1.5-1.2-.7c.1-.3.2-.7.2-1l1.8.3zm-9.5 4.8c-3.2 0-5.9-2.6-5.9-5.9 0-3.2 2.6-5.9 5.9-5.9 3.2 0 5.9 2.6 5.9 5.9 0 3.2-2.7 5.9-5.9 5.9m13.6-85.4l1.9-1.3c1.1-.8 1.8-1.2 2.3-1.4.6-.2 1.2-.3 1.9-.1.6.2 1.2.5 1.6 1.2.4.6.6 1.2.6 1.9 0 .6-.3 1.2-.8 1.8-.4.4-1.1 1-2.3 1.8l-.7.5 3 4.3-.9.7-6.6-9.4zm1.6.2l2.2 3.1 1.6-1.1c.6-.5 1.1-.8 1.3-1.2.2-.3.3-.7.3-1 0-.4-.1-.7-.4-1-.2-.3-.5-.5-.9-.7-.3-.1-.7-.2-1.1-.1-.4.1-.8.4-1.5.8l-1.5 1.2zm6.1-5.5l2-1.2c1.1-.6 1.9-1 2.3-1.2.7-.2 1.3-.2 1.9 0 .6.2 1.1.6 1.5 1.3.3.5.5 1.1.5 1.6 0 .6-.2 1.1-.5 1.5-.3.5-.9 1-1.7 1.5l6.2 2.4-1.2.7-6.2-2.4-.6.3 2.7 4.5-1 .6-5.9-9.6zm1.5.3l2 3.3 1.7-1c.7-.4 1.1-.7 1.3-1.1.2-.3.4-.7.4-1 0-.4-.1-.7-.3-1.1-.2-.3-.5-.6-.8-.7-.3-.2-.7-.2-1-.2-.4.1-.9.3-1.5.7l-1.8 1.1zm6.4-4.9l1-.5 5.3 10-1 .5-5.3-10zm7.7 8.6l-4.6-10.3.2-.1 10.5 4.8-3.5-7.9 1-.5 4.6 10.3-.2.1-10.4-4.7 3.5 7.8-1.1.5zm5.3-13.4l-.4-1 5.9-2.1.4 1-2.4.9 3.5 9.6-1.1.4-3.5-9.6-2.4.8zm14.7-.5l-.8-3.2 1-.3.8 3.2 3.3-.8.3 1-3.3.8.8 3.2-1 .3-.8-3.2-3.3.8-.3-1 3.3-.8zm8.6-7.3l1.2-.1L187 40l2.4-8.4h.2l4.1 7.7 1.5-8.3 1.2-.1-2 11.6h-.2l-4.3-8.1-2.5 8.9h-.2l-4.6-11zm15.9-1.4l6.5-.1v1.1l-5.4.1v3.5l5.4-.1v1.1l-5.4.1.1 4.4 5.4-.1V42l-6.5.1-.1-11.2zm8.6-.1l2.2.2c.9.1 1.6.2 2.1.5.5.2.8.6 1.1 1.1.2.5.4 1 .3 1.5 0 .5-.2.9-.5 1.3s-.7.7-1.2.9c.6.2 1 .5 1.3.8.3.3.5.6.7 1 .1.4.2.8.2 1.3-.1.9-.5 1.6-1.2 2.2-.7.6-1.6.8-2.8.7l-3.1-.2.9-11.3zm.6 5.9l-.3 4.3 1.4.1c.8.1 1.4 0 1.9-.1.4-.1.7-.4 1-.7.3-.3.4-.7.4-1.1 0-.5-.1-.9-.4-1.3-.3-.4-.7-.7-1.3-.9-.4-.1-1.1-.2-2-.3h-.7zm.4-4.7l-.3 3.6h.7c.8.1 1.4 0 1.8-.1.4-.1.7-.3.9-.6.2-.3.4-.6.4-1 0-.5-.1-.9-.5-1.3-.3-.3-.9-.5-1.7-.6h-1.3zm13.1 11.5l2.3-11 2.3.5c1.7.4 2.9.7 3.6 1.2 1 .6 1.7 1.4 2.1 2.5.4 1.1.5 2.2.2 3.5-.2 1.1-.7 2-1.3 2.8-.7.7-1.4 1.2-2.3 1.5-.9.2-2 .2-3.4-.1l-3.5-.9zm1.3-.8l1.3.3c1.5.3 2.6.5 3.3.4.9-.1 1.7-.4 2.3-1 .6-.6 1-1.4 1.3-2.4.2-1.1.2-2-.2-2.9-.4-.9-1-1.5-1.9-2-.7-.4-1.8-.7-3.4-1l-.8-.2-1.9 8.8zm12.5-7.6l6.3 1.9-.3 1-5.2-1.5-1 3.4 5.1 1.5-.3 1.1-5.1-1.5-1.3 4.2 5.1 1.5-.3 1.1-6.2-1.9 3.2-10.8zm3.7 10.6l1.1-.2c.2 1.4.7 2.3 1.6 2.6.4.1.7.2 1.1.1.4 0 .7-.2 1-.4.3-.2.5-.5.6-.8.1-.4.1-.7 0-1.2-.2-.6-.6-1.4-1.2-2.4s-1-1.7-1.1-2.1c-.2-.6-.2-1.2 0-1.8.2-.5.4-.8.8-1.1.4-.3.8-.5 1.3-.5.5-.1 1 0 1.4.2.5.2.9.5 1.3.9.3.4.6 1 .9 1.9l-1.1.3c-.2-.7-.4-1.2-.6-1.4-.2-.3-.5-.5-.8-.6-.4-.2-.8-.2-1.2 0-.4.2-.6.4-.8.8-.1.2-.1.5-.1.7 0 .3.1.6.3.9.1.2.4.7 1 1.6.7 1 1.1 1.9 1.2 2.5.1.7.1 1.2-.1 1.8-.3.8-.8 1.3-1.6 1.7-.8.3-1.6.4-2.5 0-.7-.2-1.2-.6-1.6-1.2-.5-.5-.8-1.3-.9-2.3zm11.1-5.5l1.1.4-4.5 10.4-1.1-.4 4.5-10.4zm12.3 8l-1.2.3c-.3-.8-.7-1.6-1.2-2.2-.5-.6-1.1-1.1-1.8-1.4-.8-.4-1.7-.6-2.6-.6-.9 0-1.7.3-2.5.7-.7.5-1.3 1.1-1.7 1.8-.4.8-.5 1.6-.5 2.5.1.9.4 1.7.9 2.5s1.2 1.4 2.1 1.8c1 .5 2.1.7 3.1.5 1-.2 1.8-.7 2.4-1.6l-3.2-1.7.5-1 4.4 2.2c-.8 1.5-1.9 2.5-3.3 3-1.4.4-2.9.3-4.4-.5-1.9-1-3-2.4-3.5-4.2-.3-1.4-.2-2.7.5-4 .5-.9 1.2-1.7 2.1-2.3.9-.6 1.9-.9 3-.9s2.2.2 3.2.8c.9.4 1.6 1 2.2 1.7.6.7 1.1 1.6 1.5 2.6zm-2.8 9.3l6.2-9.4.2.1 1.6 11.4 4.7-7.2 1 .6-6.2 9.4-.2-.1L265 51l-4.7 7.1-1-.6z"/><g fill="#005677"><path d="M112.3 151.3l-.3 53.1 9.1-2.3.2-53.1zm39.1-53.7l-36.8 8.7-.1 8.1 17.1-4-.4 88.9 9-2.3.4-88.8 10.7-2.5zm29.8 11.7l-9.5 2.4.1-11.3-9.3 2.4-.3 79.3 9.2-2.5.1-10.3 9.5-2.4-.1 20.2-27.9 7.1.4-97 27.9-7.2zm26.7-26.6l-.1 44.5-13.2 3.2.2-44-9 2.2-.5 97 9.1-2.2.2-44.9 13.1-3.3-.2 44.5 9-2.2.4-97zM23.6 199.6v18.7c0 .1-.1 1.1.9 2.3 1.2 1.3 4.1 3 11.1 3 9.3 0 14-4.6 14-13.5v-28.6l-16.8-27.1v-23l.2-.4c.1 0 1.8-1.3 4.8-1.3 1 0 2 .1 3.1.4l.3.1.1 14.3h10.3v-17c-.6-.8-4.9-6.1-13.2-6.1-9 0-14.8 4.5-14.8 11.6v27l17.2 25.9v.1c0 1.1.1 26.2 0 27.6-.1 1.1-1.9 1.7-3.6 1.7-1 0-2.8-.2-4.2-1.5l-.1-.1v-14.1h-9.3z"/><path d="M271.1 35.2c-6.3-3.9-13-7.6-20.1-10.3-6.3-2.5-11.5-4.4-19.6-6.3-9.1-1.5-18.5-2.7-28.2-2.7-47.2 0-88.7 25.2-111.8 62.7-6.9-1-13.2-1.8-18.3-1.8-19.3-.1-25.9 9.8-25.9 16.8s10 9.4 26.4 13.8c17.5 4.7 20.2 7.5 20.2 23.2-.1 15.8-3.1 59.1-3.1 59.1l-8-55.4-5.1 1.3-10.6 45 .3-61.5-8.8 2.3-.4 96.9 8.8-2.3 12.4-53.9 7.8 48.7 11.8-3.1s4.8-65.7 4.2-78.8c-.7-13 1.1-19.2-9-23.5-10.3-4.4-28-8.5-28-13.8 0-5.4 9.5-8.1 22.1-6.2 14.1 2.2 39.2 7.3 53.4 6.6 19.3-1 28.4-7.8 28.4-13.9 0-6.1-7.5-12-20.2-12.1-12.7-.1-21.9 3.6-22.3 9.1-.5 6 4.1 6 4.1 6s-.5-9 13.8-8.9c9.7 0 11.9 4.6 11.7 6.6-.3 3.9-4.7 7.1-13.3 7.6-8.9.5-27.3-3.5-44.5-6.4 22.2-33.4 60.9-56.4 103.9-56.4 15.2 0 29.7 2.8 43.1 7.8 15.9 6.1 29.9 14 40.1 23.9l8.6-2.2c-6.2-6.2-13.6-11.7-23.9-17.9z"/></g><path fill="#05CE7C" d="M203.1 266.9c-40.8 0-76.7-21.1-97.5-53l-1.4.4c21 32.4 57.4 53.9 98.9 53.9 32.9 0 62.7-13.6 84.1-35.4l-2 .1c-21.1 21-50.1 34-82.1 34zm80.1-203.3l-20.2 5-5.2 97.9 10.1-2.1 1.7-45.6.4-6c1.5.8 3.4 1.4 4.9 1.7 1.5.3 2.4 1.2 3 2.4.2.5.5 1 .7 1.5 0 .1 0 .1.1.2.2.5.4 1.1.5 1.7.4 1.3.7 1.9.8 1.9-.1 0-.4-.6-.8-1.9-.2-.6-.3-1.1-.5-1.7l2.9 42.3 9.8-2.1-8.2-95.2zm-12.7 40.1l2.4-29.3-.1-1.3 4.3 29.9h-.1v.4l.4 2.3.3 2.9c-1.6-1.1-3.9-1.9-5.5-2.8-.8-.5-1.3-.9-1.7-1.3v-.8z"/></svg>